# xmcd CD database file
#
# Track frame offsets:
#	150
#	20977
#	39214
#	58833
#	81168
#	102510
#	130994
#	155016
#	176798
#	195430
#	215865
#	232837
#	248141
#	265556
#	283073
#
# Disc length: 4012 seconds
#
# Revision: 2
# Processed by: cddbd v1.5.2PL0 Copyright (c) Steve Scherf et al.
# Submitted via: CDex 1.70beta2
#
DISCID=d90faa0f
DTITLE=Various Artist - 青春歌年鑑 ’86 BEST 30 Disc 02
DYEAR=1986
DGENRE=歌謡曲
TTITLE0=フレンズ - レベッカ
TTITLE1=1986年のマリリン - 本田  美奈子
TTITLE2=プルシアンブルーの肖像 - 安全地帯
TTITLE3=さよならのオーシャン - 杉山  清貴
TTITLE4=RASPBERRY DREAM - レベッカ
TTITLE5=SWEAT and TEARS - アルフィー
TTITLE6=ガラス越しに消えた夏 - 鈴木  雅之
TTITLE7=ff (フォルティシモ) - ハウンド・ドッグ
TTITLE8=悲しみモニュメント - 南野  陽子
TTITLE9=ステキな恋の忘れ方 - 薬師丸  ひろ子
TTITLE10=深呼吸して - 渡辺  満里奈 with おニャン子クラブ
TTITLE11=スシ食いねェ! - シブがき隊
TTITLE12=バナナの涙 - うしろゆびさされ組
TTITLE13=じゃあね - おニャン子クラブ
TTITLE14=夏色片想い - 菊池  桃子
EXTD=YEAR: 1986
EXTT0=
EXTT1=
EXTT2=
EXTT3=
EXTT4=
EXTT5=
EXTT6=
EXTT7=
EXTT8=
EXTT9=
EXTT10=
EXTT11=
EXTT12=
EXTT13=
EXTT14=
PLAYORDER=
